<svg xmlns="http://www.w3.org/2000/svg" viewBox="0 0 64 64" fill="none">
  <!-- Fuxie simplified face — favicon/app icon -->
  <!-- Head shape -->
  <ellipse cx="32" cy="36" rx="22" ry="20" fill="#5B9BD5"/>
  <!-- Left ear -->
  <path d="M12 28 L6 8 L22 22 Z" fill="#5B9BD5"/>
  <path d="M14 26 L10 12 L20 22 Z" fill="#3A7EC5"/>
  <!-- Right ear -->
  <path d="M52 28 L58 8 L42 22 Z" fill="#5B9BD5"/>
  <path d="M50 26 L54 12 L44 22 Z" fill="#3A7EC5"/>
  <!-- Inner ear tufts -->
  <path d="M14 24 L11 15 L19 22 Z" fill="#D4E8F7" opacity="0.8"/>
  <path d="M50 24 L53 15 L45 22 Z" fill="#D4E8F7" opacity="0.8"/>
  <!-- White cheeks -->
  <ellipse cx="20" cy="40" rx="8" ry="7" fill="#D4E8F7"/>
  <ellipse cx="44" cy="40" rx="8" ry="7" fill="#D4E8F7"/>
  <!-- White chest -->
  <ellipse cx="32" cy="48" rx="10" ry="8" fill="#D4E8F7"/>
  <!-- Left eye -->
  <ellipse cx="23" cy="34" rx="5.5" ry="6" fill="#F5A623"/>
  <ellipse cx="23" cy="34" rx="3.5" ry="4" fill="#1a1a1a"/>
  <circle cx="21.5" cy="32.5" r="1.5" fill="white"/>
  <circle cx="24.5" cy="35" r="0.8" fill="white" opacity="0.6"/>
  <!-- Right eye -->
  <ellipse cx="41" cy="34" rx="5.5" ry="6" fill="#F5A623"/>
  <ellipse cx="41" cy="34" rx="3.5" ry="4" fill="#1a1a1a"/>
  <circle cx="39.5" cy="32.5" r="1.5" fill="white"/>
  <circle cx="42.5" cy="35" r="0.8" fill="white" opacity="0.6"/>
  <!-- Nose -->
  <ellipse cx="32" cy="41" rx="2.5" ry="2" fill="#3A7EC5"/>
  <!-- Smile -->
  <path d="M28 44 Q32 48 36 44" stroke="#3A7EC5" stroke-width="1.5" fill="none" stroke-linecap="round"/>
</svg>
