<svg xmlns="http://www.w3.org/2000/svg" width="1800" height="1125" viewBox="0 0 1800 1125" role="img" aria-labelledby="title desc">
  <title id="title">Fuxie Quest Worlds Mockup Board V2</title>
  <desc id="desc">A benchmark-informed, more colorful gamified UI mockup board for Fuxie.</desc>
  <defs>
    <linearGradient id="topBand" x1="0" y1="0" x2="1" y2="0">
      <stop offset="0" stop-color="#06243F"/>
      <stop offset="0.46" stop-color="#004E89"/>
      <stop offset="1" stop-color="#2EC4B6"/>
    </linearGradient>
    <linearGradient id="questHot" x1="0" y1="0" x2="1" y2="1">
      <stop offset="0" stop-color="#FF6B35"/>
      <stop offset="0.54" stop-color="#FF4F76"/>
      <stop offset="1" stop-color="#FFD166"/>
    </linearGradient>
    <linearGradient id="questCool" x1="0" y1="0" x2="1" y2="1">
      <stop offset="0" stop-color="#004E89"/>
      <stop offset="0.55" stop-color="#2EC4B6"/>
      <stop offset="1" stop-color="#8BD7FF"/>
    </linearGradient>
    <linearGradient id="mapWash" x1="0" y1="0" x2="1" y2="1">
      <stop offset="0" stop-color="#FFF7ED"/>
      <stop offset="0.5" stop-color="#E9FBF8"/>
      <stop offset="1" stop-color="#EEF4FF"/>
    </linearGradient>
    <linearGradient id="rewardGold" x1="0" y1="0" x2="1" y2="1">
      <stop offset="0" stop-color="#FFE8A3"/>
      <stop offset="1" stop-color="#FFB703"/>
    </linearGradient>
    <linearGradient id="levelGreen" x1="0" y1="0" x2="1" y2="1">
      <stop offset="0" stop-color="#7AD857"/>
      <stop offset="1" stop-color="#2EC4B6"/>
    </linearGradient>
    <filter id="softShadow" x="-15%" y="-15%" width="130%" height="130%">
      <feDropShadow dx="0" dy="16" stdDeviation="14" flood-color="#06243F" flood-opacity="0.18"/>
    </filter>
    <filter id="chipShadow" x="-20%" y="-30%" width="140%" height="160%">
      <feDropShadow dx="0" dy="5" stdDeviation="5" flood-color="#06243F" flood-opacity="0.14"/>
    </filter>
    <style>
      .page { fill: #FFF8F1; }
      .screen { fill: #FFFFFF; stroke: #DCE6EF; stroke-width: 2; filter: url(#softShadow); }
      .ink { fill: #102033; }
      .muted { fill: #637083; }
      .white { fill: #FFFFFF; }
      .navy { fill: #06243F; }
      .blue { fill: #004E89; }
      .teal { fill: #2EC4B6; }
      .orange { fill: #FF6B35; }
      .yellow { fill: #FFD166; }
      .green { fill: #56B947; }
      .purple { fill: #7C3AED; }
      .pink { fill: #FF4F76; }
      .panelBg { fill: #F6FAFC; }
      .card { fill: #FFFFFF; stroke: #E2EAF1; stroke-width: 2; }
      .soft { fill: #F3F7FB; }
      .tiny { font-family: Inter, Arial, sans-serif; font-size: 13px; font-weight: 700; letter-spacing: 0; }
      .small { font-family: Inter, Arial, sans-serif; font-size: 16px; font-weight: 700; letter-spacing: 0; }
      .body { font-family: Inter, Arial, sans-serif; font-size: 18px; font-weight: 700; letter-spacing: 0; }
      .h3 { font-family: Inter, Arial, sans-serif; font-size: 24px; font-weight: 900; letter-spacing: 0; }
      .h2 { font-family: Inter, Arial, sans-serif; font-size: 34px; font-weight: 900; letter-spacing: 0; }
      .hero { font-family: Inter, Arial, sans-serif; font-size: 50px; font-weight: 900; letter-spacing: 0; }
      .path { fill: none; stroke: #8BD7FF; stroke-width: 16; stroke-linecap: round; stroke-linejoin: round; }
      .pathDone { fill: none; stroke: #FF6B35; stroke-width: 16; stroke-linecap: round; stroke-linejoin: round; }
      .dashPath { fill: none; stroke: #C7D5E4; stroke-width: 8; stroke-linecap: round; stroke-dasharray: 4 18; }
      .nodeText { font-family: Inter, Arial, sans-serif; font-size: 20px; font-weight: 900; fill: #FFFFFF; }
      .labelDark { font-family: Inter, Arial, sans-serif; font-size: 18px; font-weight: 900; fill: #102033; }
      .labelWhite { font-family: Inter, Arial, sans-serif; font-size: 18px; font-weight: 900; fill: #FFFFFF; }
    </style>
  </defs>

  <rect class="page" width="1800" height="1125"/>
  <rect x="0" y="0" width="1800" height="158" fill="url(#topBand)"/>
  <rect x="0" y="136" width="1800" height="12" fill="#FF6B35"/>
  <rect x="0" y="148" width="1800" height="10" fill="#FFD166"/>
  <text x="64" y="75" class="hero white">Fuxie Quest Worlds V2</text>
  <text x="66" y="112" class="body" fill="#D7F7F1">Benchmark-informed direction: path clarity, character coaching, reward preview, premium focus.</text>

  <g transform="translate(1178 40)">
    <rect x="0" y="0" rx="8" width="154" height="42" fill="#FFFFFF" opacity="0.14"/>
    <text x="18" y="27" class="tiny" fill="#FFFFFF">Path clarity</text>
    <rect x="170" y="0" rx="8" width="180" height="42" fill="#FFFFFF" opacity="0.14"/>
    <text x="188" y="27" class="tiny" fill="#FFFFFF">Reward preview</text>
    <rect x="366" y="0" rx="8" width="128" height="42" fill="#FFFFFF" opacity="0.14"/>
    <text x="384" y="27" class="tiny" fill="#FFFFFF">Coach role</text>
  </g>

  <!-- 1. Dashboard Mission Control -->
  <g transform="translate(64 190)">
    <rect class="screen" x="0" y="0" rx="16" width="816" height="408"/>
    <rect x="0" y="0" rx="16" width="816" height="408" fill="#FFFFFF"/>
    <rect x="0" y="0" rx="16" width="816" height="50" fill="#06243F"/>
    <circle cx="28" cy="25" r="6" fill="#FF6B35"/>
    <circle cx="50" cy="25" r="6" fill="#FFD166"/>
    <circle cx="72" cy="25" r="6" fill="#2EC4B6"/>
    <text x="116" y="31" class="tiny" fill="#CFE8F6">Dashboard / Mission Control</text>
    <rect x="0" y="50" width="94" height="358" fill="#0A2F4F"/>
    <rect x="22" y="78" rx="8" width="50" height="50" fill="#FF6B35"/>
    <text x="31" y="111" class="labelWhite">Fx</text>
    <rect x="22" y="154" rx="8" width="50" height="46" fill="#FFFFFF" opacity="0.14"/>
    <rect x="22" y="216" rx="8" width="50" height="46" fill="#FFFFFF" opacity="0.14"/>
    <rect x="22" y="278" rx="8" width="50" height="46" fill="#FFFFFF" opacity="0.14"/>
    <rect x="122" y="76" rx="8" width="460" height="124" fill="url(#questHot)"/>
    <text x="150" y="115" class="tiny" fill="#FFF8E7">DAILY QUEST</text>
    <text x="150" y="151" class="h2 white">15 min to save streak</text>
    <text x="150" y="181" class="small" fill="#FFF8E7">Sprint + listen check = +45 XP</text>
    <rect x="430" y="130" rx="8" width="124" height="46" fill="#FFFFFF"/>
    <text x="455" y="160" class="labelDark">Hoc tiep</text>
    <g transform="translate(608 76)">
      <rect x="0" y="0" rx="8" width="174" height="124" fill="#F5FBFF" stroke="#CBE8F5" stroke-width="2"/>
      <path d="M58 29 C44 45, 44 66, 58 80 C74 96, 103 84, 102 59 C101 38, 80 23, 58 29Z" fill="#FF6B35"/>
      <path d="M54 31 L42 13 L64 26Z" fill="#FF6B35"/>
      <path d="M94 32 L111 14 L100 43Z" fill="#FF6B35"/>
      <ellipse cx="73" cy="68" rx="30" ry="21" fill="#FFF0E6"/>
      <circle cx="61" cy="58" r="4" fill="#102033"/>
      <circle cx="84" cy="58" r="4" fill="#102033"/>
      <text x="42" y="105" class="tiny ink">Coach: next action</text>
    </g>
    <g transform="translate(122 226)">
      <rect class="card" x="0" y="0" rx="8" width="186" height="124"/>
      <rect x="18" y="18" rx="8" width="42" height="42" fill="#E9FBF8"/>
      <path d="M29 38 h21 M39 28 v21" stroke="#2EC4B6" stroke-width="5" stroke-linecap="round"/>
      <text x="18" y="84" class="labelDark">Word Sprint</text>
      <text x="18" y="108" class="tiny muted">+15 XP / 6 min</text>
      <rect class="card" x="210" y="0" rx="8" width="186" height="124"/>
      <rect x="228" y="18" rx="8" width="42" height="42" fill="#EEF4FF"/>
      <path d="M241 37 C248 28, 261 28, 268 37 M237 48 C248 61, 261 61, 272 48" stroke="#004E89" stroke-width="4" fill="none" stroke-linecap="round"/>
      <text x="228" y="84" class="labelDark">Listen Check</text>
      <text x="228" y="108" class="tiny muted">Unlock review</text>
      <rect x="420" y="0" rx="8" width="238" height="124" fill="#FFF6D6" stroke="#FFE2A0" stroke-width="2"/>
      <text x="440" y="36" class="tiny" fill="#9A6A00">REWARD PREVIEW</text>
      <text x="440" y="72" class="body ink">Badge + streak safe</text>
      <rect x="440" y="88" rx="8" width="116" height="26" fill="#FFB703"/>
      <text x="463" y="106" class="tiny ink">+45 XP</text>
    </g>
  </g>

  <!-- 2. Vocabulary World Map -->
  <g transform="translate(920 190)">
    <rect class="screen" x="0" y="0" rx="16" width="816" height="408"/>
    <rect x="0" y="0" rx="16" width="816" height="408" fill="url(#mapWash)"/>
    <rect x="0" y="0" rx="16" width="816" height="50" fill="#FFFFFF" opacity="0.9"/>
    <text x="28" y="32" class="tiny ink">Vocabulary / Theme World Map</text>
    <rect x="636" y="14" rx="8" width="132" height="26" fill="#E9FBF8"/>
    <text x="660" y="32" class="tiny" fill="#008A7D">A1 active</text>
    <path d="M86 294 C174 226, 226 262, 292 196 C378 112, 478 166, 532 116 C596 58, 668 92, 724 64" class="dashPath"/>
    <path d="M86 294 C174 226, 226 262, 292 196" class="pathDone"/>
    <g transform="translate(48 252)">
      <path d="M0 44 C8 10, 48 -8, 86 8 C121 22, 137 60, 111 87 C82 117, 15 103, 0 44Z" fill="#56B947"/>
      <rect x="34" y="22" width="44" height="32" rx="6" fill="#FFFFFF"/>
      <text x="25" y="78" class="labelWhite">Person</text>
    </g>
    <g transform="translate(255 155)">
      <path d="M0 45 C10 7, 61 -8, 102 14 C139 34, 127 86, 91 104 C48 126, 5 92, 0 45Z" fill="#FF6B35"/>
      <rect x="35" y="18" width="52" height="40" rx="7" fill="#FFFFFF"/>
      <circle cx="54" cy="38" r="7" fill="#FF6B35"/>
      <circle cx="72" cy="38" r="7" fill="#FF6B35"/>
      <text x="32" y="84" class="labelWhite">Essen</text>
    </g>
    <g transform="translate(492 82)">
      <path d="M0 42 C18 6, 71 0, 109 22 C145 44, 132 98, 88 110 C40 123, -13 86, 0 42Z" fill="#2EC4B6"/>
      <path d="M33 58 L56 32 L84 58 V82 H33Z" fill="#FFFFFF"/>
      <text x="22" y="99" class="labelWhite">Wohnen</text>
    </g>
    <g transform="translate(680 44)">
      <circle cx="36" cy="36" r="38" fill="#DCE6EF" stroke="#A8B8C8" stroke-width="5"/>
      <path d="M22 36 h28 M36 22 v28" stroke="#637083" stroke-width="5" stroke-linecap="round"/>
      <text x="10" y="91" class="tiny muted">locked</text>
    </g>
    <rect x="36" y="76" rx="8" width="260" height="78" fill="#FFFFFF" stroke="#CBE8F5" stroke-width="2"/>
    <text x="58" y="108" class="tiny muted">SELECTED THEME</text>
    <text x="58" y="138" class="h3 ink">Person - 34 words</text>
    <g transform="translate(568 160)">
      <rect x="0" y="0" rx="8" width="204" height="174" fill="#FFFFFF" stroke="#E2EAF1" stroke-width="2"/>
      <text x="18" y="32" class="tiny muted">PRACTICE MODE</text>
      <text x="18" y="64" class="h3 ink">Word Quest</text>
      <rect x="18" y="86" rx="8" width="74" height="32" fill="#E9FBF8"/>
      <text x="34" y="108" class="tiny" fill="#008A7D">SRS</text>
      <rect x="104" y="86" rx="8" width="74" height="32" fill="#FFF6D6"/>
      <text x="120" y="108" class="tiny" fill="#9A6A00">+20 XP</text>
      <rect x="18" y="130" rx="8" width="168" height="34" fill="#FF6B35"/>
      <text x="51" y="153" class="labelWhite">Luyen ngay</text>
    </g>
  </g>

  <!-- 3. Skill Player -->
  <g transform="translate(64 648)">
    <rect class="screen" x="0" y="0" rx="16" width="816" height="408"/>
    <rect x="0" y="0" rx="16" width="816" height="408" fill="#FFFFFF"/>
    <rect x="0" y="0" rx="16" width="816" height="50" fill="#F6FAFC"/>
    <text x="28" y="32" class="tiny ink">Listening Player / Focus + Reward Layer</text>
    <g transform="translate(36 80)">
      <rect x="0" y="0" rx="8" width="500" height="244" fill="#F6FAFC" stroke="#E2EAF1" stroke-width="2"/>
      <text x="28" y="42" class="tiny muted">QUESTION 1 / 5</text>
      <text x="28" y="82" class="h3 ink">Was hoerst du?</text>
      <rect x="28" y="110" rx="8" width="416" height="52" fill="#FFFFFF" stroke="#DCE6EF" stroke-width="2"/>
      <path d="M58 135 C82 110, 110 166, 136 136 S190 105, 215 137 S268 161, 296 134 S350 112, 386 139" stroke="#2EC4B6" stroke-width="6" fill="none" stroke-linecap="round"/>
      <rect x="28" y="182" rx="8" width="134" height="40" fill="#004E89"/>
      <text x="65" y="208" class="labelWhite">Replay</text>
      <rect x="178" y="182" rx="8" width="134" height="40" fill="#FFFFFF" stroke="#C7D5E4" stroke-width="2"/>
      <text x="218" y="208" class="labelDark">Hint</text>
      <rect x="328" y="182" rx="8" width="134" height="40" fill="#FF6B35"/>
      <text x="361" y="208" class="labelWhite">Check</text>
    </g>
    <g transform="translate(568 80)">
      <rect x="0" y="0" rx="8" width="212" height="244" fill="#06243F"/>
      <text x="22" y="36" class="tiny" fill="#CFE8F6">COACH FEEDBACK</text>
      <circle cx="66" cy="86" r="36" fill="#FF6B35"/>
      <path d="M44 60 L34 39 L60 53Z" fill="#FF6B35"/>
      <path d="M86 60 L104 40 L94 70Z" fill="#FF6B35"/>
      <ellipse cx="66" cy="96" rx="28" ry="18" fill="#FFF0E6"/>
      <circle cx="56" cy="83" r="4" fill="#102033"/>
      <circle cx="76" cy="83" r="4" fill="#102033"/>
      <text x="22" y="146" class="h3 white">Good ear!</text>
      <text x="22" y="176" class="small" fill="#CFE8F6">Combo x3 - +10 XP</text>
      <rect x="22" y="194" rx="8" width="168" height="30" fill="#FFFFFF" opacity="0.16"/>
      <rect x="22" y="194" rx="8" width="118" height="30" fill="#2EC4B6"/>
    </g>
    <rect x="36" y="346" rx="8" width="744" height="36" fill="#FFF6D6" stroke="#FFE2A0" stroke-width="2"/>
    <text x="58" y="370" class="small" fill="#9A6A00">Reward preview: Finish 5 questions to unlock Review Pack + badge</text>
  </g>

  <!-- 4. Course Adventure Path -->
  <g transform="translate(920 648)">
    <rect class="screen" x="0" y="0" rx="16" width="816" height="408"/>
    <rect x="0" y="0" rx="16" width="816" height="408" fill="#F7FBFF"/>
    <rect x="0" y="0" rx="16" width="816" height="50" fill="#FFFFFF"/>
    <text x="28" y="32" class="tiny ink">Course / A1 Adventure Path</text>
    <rect x="522" y="14" rx="8" width="164" height="26" fill="#EEF4FF"/>
    <text x="548" y="32" class="tiny" fill="#004E89">A1 exam route</text>
    <path d="M86 320 C138 242, 244 284, 294 206 C346 126, 444 180, 496 112 C540 54, 640 80, 714 58" class="path"/>
    <path d="M86 320 C138 242, 244 284, 294 206" class="pathDone"/>
    <g transform="translate(42 282)">
      <circle cx="44" cy="44" r="44" fill="url(#levelGreen)" filter="url(#chipShadow)"/>
      <text x="34" y="52" class="nodeText">1</text>
      <text x="2" y="112" class="tiny muted">Hallo!</text>
    </g>
    <g transform="translate(250 162)">
      <circle cx="44" cy="44" r="48" fill="#FF6B35" filter="url(#chipShadow)"/>
      <text x="34" y="52" class="nodeText">2</text>
      <rect x="-36" y="96" rx="8" width="160" height="34" fill="#FFFFFF" stroke="#FFD1BE" stroke-width="2"/>
      <text x="-13" y="119" class="tiny" fill="#FF6B35">current quest</text>
    </g>
    <g transform="translate(454 70)">
      <circle cx="44" cy="44" r="44" fill="#FFFFFF" stroke="#C7D5E4" stroke-width="6"/>
      <path d="M30 46 h28 M44 32 v28" stroke="#637083" stroke-width="5" stroke-linecap="round"/>
      <text x="14" y="112" class="tiny muted">locked</text>
    </g>
    <g transform="translate(668 26)">
      <circle cx="48" cy="48" r="52" fill="url(#questCool)" filter="url(#chipShadow)"/>
      <text x="20" y="57" class="labelWhite">Exam</text>
      <rect x="6" y="108" rx="8" width="84" height="30" fill="#FFD166"/>
      <text x="21" y="128" class="tiny ink">boss gate</text>
    </g>
    <g transform="translate(42 76)">
      <rect x="0" y="0" rx="8" width="250" height="76" fill="#FFFFFF" stroke="#E2EAF1" stroke-width="2"/>
      <text x="20" y="30" class="tiny muted">NEXT BEST ACTION</text>
      <text x="20" y="60" class="h3 ink">Modul 2: Familie</text>
    </g>
    <g transform="translate(526 230)">
      <rect x="0" y="0" rx="8" width="242" height="112" fill="#FFFFFF" stroke="#E2EAF1" stroke-width="2"/>
      <text x="20" y="31" class="tiny muted">UNLOCK CONDITION</text>
      <text x="20" y="62" class="body ink">Finish Modul 2 + review</text>
      <rect x="20" y="76" rx="8" width="122" height="26" fill="#E9FBF8"/>
      <text x="39" y="94" class="tiny" fill="#008A7D">+60 XP</text>
      <rect x="154" y="76" rx="8" width="68" height="26" fill="#FFF6D6"/>
      <text x="171" y="94" class="tiny" fill="#9A6A00">badge</text>
    </g>
  </g>

  <text x="64" y="1092" class="small muted">V2 principle: richer world-building + clearer reward loop, while keeping Goethe/telc study tasks readable and credible.</text>
</svg>
